<svg width="15" height="14" viewBox="0 0 15 14" fill="none" xmlns="http://www.w3.org/2000/svg">
<path d="M6.85872 1.09367C7.16633 0.189974 8.44445 0.189977 8.75205 1.09367L9.73557 3.98313C9.87352 4.3884 10.2541 4.66091 10.6822 4.66091H13.7624C14.7424 4.66091 15.1376 5.92416 14.3323 6.48263L11.9216 8.15456C11.5547 8.40901 11.401 8.87584 11.5448 9.29851L12.4843 12.0586C12.7951 12.9718 11.7604 13.7523 10.9678 13.2025L8.37528 11.4046C8.03253 11.1668 7.57824 11.1668 7.23549 11.4046L4.64302 13.2025C3.85035 13.7523 2.81563 12.9718 3.12646 12.0586L4.06594 9.29851C4.20981 8.87584 4.05606 8.40901 3.68917 8.15456L1.27844 6.48263C0.473199 5.92416 0.868386 4.66091 1.84833 4.66091H4.92854C5.35664 4.66091 5.73726 4.3884 5.8752 3.98313L6.85872 1.09367Z" fill="#FFA858"/>
</svg>
